<svg xmlns="http://www.w3.org/2000/svg" width="40" height="40" fill="none" viewBox="0 0 40 40">
    <path fill="#505153" fill-rule="evenodd" d="M8.816 7.438c-.761 0-1.379.617-1.379 1.378v22.368c0 .761.618 1.378 1.379 1.378h22.368c.761 0 1.378-.617 1.378-1.378V8.816c0-.761-.617-1.379-1.378-1.379H8.816zm.062 23.684V8.878h22.244v22.244H8.878zM20 12.042c-.398 0-.72.323-.72.721v6.517h-6.517c-.398 0-.72.322-.72.72 0 .398.322.72.72.72h6.517v6.517c0 .398.322.72.72.72.398 0 .72-.322.72-.72V20.72h6.517c.398 0 .72-.322.72-.72 0-.398-.322-.72-.72-.72H20.72v-6.517c0-.398-.322-.72-.72-.72z" clip-rule="evenodd"/>
</svg>
