<svg xmlns="http://www.w3.org/2000/svg" width="40" height="40" fill="none" viewBox="0 0 40 40">
    <path fill="#505153" fill-rule="evenodd" d="M20.331 9.181c-.192-.158-.47-.158-.662 0L9.252 17.766c-.12.1-.19.247-.19.402v12.249c0 .287.234.52.521.52h6.19v-8.232c0-.431.349-.78.78-.78h6.894c.431 0 .781.349.781.78v8.233h6.189c.287 0 .52-.234.52-.521V18.168c0-.155-.069-.303-.19-.402L20.332 9.181zm-1.656-1.205c.77-.635 1.88-.635 2.65 0l10.417 8.584c.48.396.758.986.758 1.608v12.249c0 1.15-.933 2.083-2.083 2.083h-6.97c-.432 0-.781-.35-.781-.781v-8.232h-5.331v8.232c0 .431-.35.781-.782.781h-6.97c-1.15 0-2.083-.933-2.083-2.083V18.168c0-.622.278-1.212.758-1.608l10.417-8.584z" clip-rule="evenodd"/>
</svg>
