<svg xmlns="http://www.w3.org/2000/svg" width="24" height="24" fill="none" viewBox="0 0 24 24">
    <path fill="#fff" fill-rule="evenodd" d="M12.667 7.611v3.833H16.5c.337 0 .611.275.611.612 0 .337-.275.61-.611.61h-3.833V16.5c0 .337-.275.611-.611.611-.337 0-.612-.275-.612-.611v-3.833H7.611c-.337 0-.611-.275-.611-.611 0-.337.275-.612.611-.612h3.833V7.611c0-.337.275-.611.612-.611.337 0 .61.275.61.611z" clip-rule="evenodd"/>
    <path fill="#fff" fill-rule="evenodd" d="M21 12c0 4.97-4.03 9-9 9s-9-4.03-9-9 4.03-9 9-9 9 4.03 9 9zM4.158 12c0 4.331 3.51 7.842 7.842 7.842 4.331 0 7.842-3.51 7.842-7.842 0-4.331-3.51-7.842-7.842-7.842-4.331 0-7.842 3.51-7.842 7.842z" clip-rule="evenodd"/>
</svg>
