<svg xmlns="http://www.w3.org/2000/svg" width="40" height="40" fill="none" viewBox="0 0 40 40">
    <path fill="#505153" fill-rule="evenodd" d="M24.21 13.421c0 2.325-1.885 4.21-4.21 4.21s-4.21-1.885-4.21-4.21 1.885-4.21 4.21-4.21 4.21 1.885 4.21 4.21zm1.711 0c0 3.27-2.65 5.921-5.921 5.921-3.27 0-5.921-2.65-5.921-5.92 0-3.271 2.65-5.922 5.921-5.922 3.27 0 5.921 2.65 5.921 5.921zm-8.852 9.013h5.862c4.086 0 7.444 3.119 7.823 7.105H9.246c.38-3.986 3.737-7.105 7.823-7.105zM7.5 30.294c0-5.286 4.284-9.57 9.57-9.57h5.86c5.286 0 9.57 4.284 9.57 9.57 0 .528-.428.956-.957.956H8.457c-.529 0-.957-.428-.957-.957z" clip-rule="evenodd"/>
</svg>
