<svg xmlns="http://www.w3.org/2000/svg" width="18" height="18" fill="none" viewBox="0 0 18 18">
    <path fill="#FFC700" fill-rule="evenodd" d="M12.536 5.464l-7.072 7.072C4.56 11.63 4 10.38 4 9c0-2.761 2.239-5 5-5 1.38 0 2.63.56 3.536 1.464zM8 3V0h2v3H8zM3.121 5.536l-2.12-2.122L2.413 2l2.122 2.121L3.12 5.536zM3 11H0V9h3v2z" clip-rule="evenodd"/>
    <circle cx="6" cy="15" r="1" fill="#505153"/>
    <circle cx="9" cy="12" r="1" fill="#505153"/>
    <circle cx="10" cy="16" r="1" fill="#505153"/>
    <circle cx="13" cy="13" r="1" fill="#505153"/>
    <circle cx="16" cy="10" r="1" fill="#505153"/>
    <circle cx="15" cy="16" r="1" fill="#505153"/>
    <circle cx="12" cy="9" r="1" fill="#505153"/>
    <circle cx="15" cy="6" r="1" fill="#505153"/>
</svg>
