<svg xmlns="http://www.w3.org/2000/svg" width="24" height="24" fill="none" viewBox="0 0 24 24">
    <path fill="#939395" fill-rule="evenodd" d="M5 2c0-.552-.448-1-1-1s-1 .448-1 1v20c0 .552.448 1 1 1s1-.448 1-1V8c0 .553-.448 1-1 1s-1-.448-1-1 .448-1 1-1 1 .447 1 1V2z" clip-rule="evenodd"/>
    <path fill="#939395" fill-rule="evenodd" d="M5 8c0-.552-.448-1-1-1s-1 .448-1 1 .448 1 1 1 1-.448 1-1zM4 5c1.657 0 3 1.343 3 3s-1.343 3-3 3-3-1.343-3-3 1.343-3 3-3zM13 2c0-.552-.448-1-1-1s-1 .448-1 1v20c0 .552.448 1 1 1s1-.448 1-1v-3.999c0 .552-.448.999-1 .999s-1-.448-1-1 .448-1 1-1 1 .447 1 .999V2z" clip-rule="evenodd"/>
    <path fill="#939395" fill-rule="evenodd" d="M13 18c0-.552-.448-1-1-1s-1 .448-1 1 .448 1 1 1 1-.448 1-1zm-1-3c1.657 0 3 1.343 3 3s-1.343 3-3 3-3-1.343-3-3 1.343-3 3-3zM21 2c0-.552-.448-1-1-1s-1 .448-1 1v20c0 .552.448 1 1 1s1-.448 1-1V9c0 .553-.448 1-1 1s-1-.448-1-1 .448-1 1-1 1 .447 1 1V2z" clip-rule="evenodd"/>
    <path fill="#939395" fill-rule="evenodd" d="M21 9c0-.552-.448-1-1-1s-1 .448-1 1 .448 1 1 1 1-.448 1-1zm-1-3c1.657 0 3 1.343 3 3s-1.343 3-3 3-3-1.343-3-3 1.343-3 3-3z" clip-rule="evenodd"/>
</svg>
