<svg xmlns="http://www.w3.org/2000/svg" width="24" height="24" viewBox="0 0 24 24">
    <path fill="#3C1E1E" fill-rule="evenodd" d="M11.99 3.204l.295.004c5.381.119 9.696 3.493 9.696 7.639 0 4.222-4.473 7.644-9.99 7.644-.606 0-1.2-.042-1.775-.121-.576.395-3.907 2.664-4.222 2.707 0 0-.129.049-.239-.013-.109-.063-.09-.227-.09-.227.034-.219.864-3.001 1.018-3.514C3.87 15.971 2 13.576 2 10.847c0-4.22 4.473-7.643 9.99-7.643zm-4.048 5.36H4.99a.558.558 0 0 0-.566.547c0 .302.254.547.566.547h.898v3.323c0 .296.26.535.578.535.318 0 .576-.24.576-.535V9.658h.899a.558.558 0 0 0 .566-.547.558.558 0 0 0-.566-.547zm8.212 0a.569.569 0 0 0-.578.56v3.825c0 .309.26.56.578.56.318 0 .576-.251.576-.56v-1.22l.2-.195 1.351 1.738c.11.142.28.224.46.223.126 0 .248-.04.348-.113a.554.554 0 0 0 .224-.37.542.542 0 0 0-.112-.414l-1.418-1.824 1.314-1.273a.433.433 0 0 0 .127-.34.581.581 0 0 0-.567-.52.456.456 0 0 0-.319.123l-1.608 1.561V9.123c0-.31-.26-.559-.576-.559zm-6.277 0a.864.864 0 0 0-.767.552l-1.38 3.521c-.175.528-.022.723.136.794.116.05.24.078.367.077.24 0 .424-.094.48-.246l.285-.726h1.758l.285.726c.056.152.24.246.48.246.126.001.25-.026.366-.077.158-.07.312-.266.136-.795l-1.378-3.519a.864.864 0 0 0-.768-.553zm3.11 0c-.324 0-.588.25-.588.56v3.798c0 .282.248.511.551.511h1.85c.305 0 .553-.229.553-.511 0-.283-.248-.513-.553-.513h-1.224V9.123c0-.31-.265-.559-.59-.559zM9.876 9.667l.476 1.904H9.4l.476-1.904z"/>
</svg>
