<svg xmlns="http://www.w3.org/2000/svg" width="24" height="24" fill="none" viewBox="0 0 24 24">
    <path fill="#68E1DE" d="M20.587 11.332l-16.5-8.25c-.129-.064-.274-.09-.418-.074-.143.016-.28.073-.391.164-.107.09-.187.208-.23.34-.045.133-.05.275-.018.41l1.988 7.328H13.5v1.5H5.018L3 20.055c-.03.113-.034.232-.01.347.023.115.074.223.147.315.073.091.166.165.273.214.106.05.223.073.34.069.117 0 .233-.03.338-.083l16.5-8.25c.122-.063.226-.158.297-.276.072-.118.11-.253.11-.391s-.038-.274-.11-.391c-.072-.118-.175-.214-.298-.277z"/>
</svg>
